<svg viewBox="0 0 742 370" version="1.1" xmlns="http://www.w3.org/2000/svg" xmlns:svg="http://www.w3.org/2000/svg">
  <g id="layer1">
    <g id="g2824" transform="matrix(1.0289646,0,0,1.0289646,-19.340717,-8.5855478)">
      <path d="M 365.78415,227.0064 C 365.78415,227.0064 365.76709,227.0064 365.76709,227.0064 C 364.16419,227.0064 362.74885,227.53502 361.41878,228.60931 C 360.42975,229.39371 359.74766,230.45095 359.20199,231.62755 C 359.20199,231.62755 359.2702,231.62755 359.2702,231.62755 C 359.81587,230.45095 360.49796,229.39371 361.46994,228.60931 C 362.80001,227.53502 364.21534,227.02345 365.78415,227.0064 z" id="path2577" style="fill:#bd0000;fill-opacity:1;fill-rule:evenodd;stroke:none;stroke-width:1pt;stroke-linecap:butt;stroke-linejoin:miter"/>
      <path d="M 99.27327,21.5618 C 99.27329,21.5618 39.96354,280.32922 39.96354,280.32922 C 39.98059,280.32922 39.98273,280.32922 40.01683,280.32922 C 40.01683,280.32922 314.39764,280.32922 314.39764,280.32922 C 314.39765,280.32922 457.10337,280.32922 457.10337,280.32922 C 440.1023,278.84569 426.6801,272.8774 418.68261,261.9981 C 417.19908,259.98591 415.97343,257.81817 414.89914,255.55022 C 414.21707,253.87912 413.57546,252.19307 412.92747,250.48785 C 411.22223,245.06524 410.5423,239.04794 410.84923,232.63631 C 411.70185,214.76557 420.08728,193.50829 434.61577,171.24833 C 450.04802,147.59177 472.41414,122.79744 500.10693,99.78889 C 506.31392,94.6357 512.73196,89.5469 519.45054,84.60175 C 527.75495,78.49196 536.12335,72.86514 544.49599,67.60282 C 575.34344,48.18205 606.11416,34.5927 633.38066,27.69 C 607.32489,36.19051 578.05261,50.62138 549.13205,70.26724 C 548.09189,70.96979 547.06447,71.68939 546.04133,72.39876 C 529.9952,83.51681 515.45819,95.32462 502.77135,107.24922 C 461.94832,145.63379 440.37089,185.40806 450.17591,208.70991 C 450.87507,210.31281 451.70847,211.84326 452.68046,213.2927 C 463.21871,228.79317 489.33633,231.47249 522.43468,223.15101 C 524.68557,222.58826 526.93646,221.95097 529.25556,221.28593 C 539.82794,218.23356 551.05256,214.1112 562.61396,209.02965 C 565.39345,207.80188 568.20283,206.54002 571.03349,205.19289 C 571.32337,205.05648 571.59622,204.92006 571.8861,204.76659 C 608.37783,186.63497 636.42235,165.77201 642.49294,153.23692 C 643.82302,150.5103 644.14274,148.18562 643.23897,146.36275 C 638.90773,137.58087 608.59952,143.51375 571.8861,159.41835 C 568.93607,160.69725 565.95193,162.01327 562.93369,163.41496 C 565.38921,161.1351 567.94492,158.84668 570.55389,156.59407 C 574.71464,153.00969 579.02245,149.50462 583.60949,146.04303 C 590.78849,140.60676 598.04634,135.69232 605.19122,131.33549 C 638.64765,106.09482 655.56132,82.21827 652.03152,73.35796 C 651.36647,71.68853 649.95115,70.54007 647.76846,69.84093 C 640.79408,67.62246 628.06463,70.27022 612.59827,76.60853 C 599.84323,81.84017 585.19323,89.59933 570.34075,99.25601 C 570.34075,99.25601 568.3158,100.58821 568.3158,100.58821 C 568.31582,100.58821 567.94278,100.80135 567.94278,100.80135 C 567.9428,100.80137 560.80217,105.544 560.80217,105.544 C 560.80215,105.54399 564.90536,98.03037 564.90536,98.03037 C 570.99301,86.88673 580.90886,75.2597 593.25466,64.45883 C 602.30939,56.56194 612.65369,49.12121 623.78879,42.61067 C 628.0007,40.14494 632.20619,37.85481 636.41808,35.78979 C 640.7323,33.6821 645.04863,31.8089 649.26054,30.1412 C 661.49736,25.3019 673.17835,22.3614 683.36496,21.5618 C 682.43729,21.5618 654.74922,21.5618 654.74922,21.5618 C 654.74923,21.5618 558.29763,21.5618 558.29763,21.5618 C 558.29764,21.5618 133.00468,21.5618 133.00468,21.5618 C 133.00468,21.5618 99.27327,21.5618 99.27327,21.5618 z M 405.25398,21.9349 C 403.58289,47.43986 408.52801,84.79701 419.74837,126.2731 C 421.74346,133.65331 423.91549,141.16395 426.30281,148.76072 C 427.78637,153.45176 429.3168,158.06953 430.88559,162.61564 C 429.96479,163.9696 429.03755,165.31501 428.16789,166.66554 C 414.16804,188.12062 405.98509,208.39658 403.92178,226.02857 C 398.00464,206.21389 393.54977,184.51027 391.02604,161.49659 C 390.30985,154.90249 389.74925,148.38217 389.3741,141.93984 C 386.61163,95.14345 392.72059,52.72264 405.25398,21.9349 z M 125.86408,55.1334 C 126.18342,55.12586 126.49822,55.1334 126.82326,55.1334 C 126.82326,55.13338 189.86317,55.1334 189.86317,55.1334 C 195.25168,55.13338 199.41881,56.14331 202.38589,58.17082 C 205.33591,60.21028 206.4422,62.84825 205.74304,66.05747 C 205.74306,66.05749 198.22941,100.00203 198.22941,100.00203 C 198.22941,100.00206 176.00825,100.00203 176.00825,100.00203 C 176.00827,100.00206 183.30873,66.96337 183.30873,66.96337 C 183.30871,66.96337 127.67588,66.96337 127.67588,66.96337 C 127.67586,66.96337 107.58623,157.76642 107.58623,157.76642 C 107.58625,157.76642 100.33904,190.64523 100.33904,190.64523 C 100.33904,190.64526 155.91861,190.64523 155.91861,190.64523 C 155.91861,190.64526 155.9719,190.43207 155.9719,190.43207 C 155.9719,190.43209 167.10912,140.12803 167.10912,140.12803 C 167.10912,140.12801 140.99792,140.12803 140.99792,140.12803 C 140.99792,140.12801 143.50246,128.77765 143.50246,128.77765 C 143.50245,128.77763 191.83484,128.77765 191.83484,128.77765 C 191.83484,128.77763 177.97991,191.55113 177.97991,191.55113 C 177.79234,192.44465 177.46409,193.25421 177.02072,194.05566 C 175.87823,196.13603 173.88525,197.918 171.10574,199.38449 C 167.25196,201.41372 162.63931,202.42191 157.25081,202.42191 C 157.25081,202.42193 94.26419,202.42191 94.26419,202.42191 C 88.87567,202.42193 84.70855,201.4137 81.74147,199.38449 C 78.79146,197.35529 77.66812,194.76376 78.38432,191.55113 C 78.38433,191.55111 106.14745,66.05747 106.14745,66.05747 C 106.86363,62.84826 109.0975,60.21026 112.96834,58.17082 C 113.10476,58.09751 113.25823,58.08087 113.39464,58.01096 C 116.92766,56.24126 121.07401,55.24653 125.86408,55.1334 z M 224.66036,55.1334 C 224.66034,55.13338 304.00644,55.1334 304.00644,55.1334 C 309.32675,55.13338 313.50879,56.14331 316.47587,58.17082 C 319.46004,60.21028 320.60253,62.84825 319.88632,66.05747 C 319.88634,66.05749 305.07221,132.98742 305.07221,132.98742 C 304.37309,136.17616 302.08594,138.77792 298.19804,140.82078 C 294.31014,142.87044 289.73374,143.91149 284.3964,143.91149 C 284.39638,143.91149 226.7386,143.91149 226.7386,143.91149 C 226.7386,143.91149 215.60137,194.16224 215.60137,194.16224 C 215.60137,194.16226 213.78957,202.42191 213.78957,202.42191 C 213.78958,202.42193 192.04799,202.42191 192.04799,202.42191 C 192.04799,202.42193 193.69992,194.96157 193.69992,194.96157 C 193.69992,194.96159 224.66036,55.1334 224.66036,55.1334 z M 334.27413,55.1334 C 334.27412,55.13338 356.01571,55.1334 356.01571,55.1334 C 356.01573,55.13338 331.39657,166.34581 331.39657,166.34581 C 331.39659,166.34583 326.01447,190.64523 326.01447,190.64523 C 326.01447,190.64526 378.02373,190.64523 378.02373,190.64523 C 378.56941,194.63377 379.20672,198.55105 379.88881,202.42191 C 379.88879,202.42193 301.66176,202.42191 301.66176,202.42191 C 301.66178,202.42193 307.84319,174.4989 307.84319,174.4989 C 307.84321,174.4989 334.27413,55.1334 334.27413,55.1334 z M 243.79081,66.96337 C 243.79083,66.96337 229.34971,132.08151 229.34971,132.08151 C 229.34971,132.08149 283.54379,132.08151 283.54379,132.08151 C 283.54378,132.08149 297.93159,66.96337 297.93159,66.96337 C 297.93161,66.96337 243.79081,66.96337 243.79081,66.96337 z M 198.22941,212.65324 C 198.44208,212.64609 198.65465,212.65324 198.86888,212.65324 C 201.39261,212.65326 203.5966,213.0966 205.37003,213.93215 C 207.26283,214.81886 208.61635,216.13615 209.36665,217.87548 C 210.0999,219.56367 210.29173,221.47989 209.89952,223.57732 C 209.89952,223.57733 209.73967,224.37665 209.73967,224.37665 C 209.73968,224.37662 203.50495,224.37665 203.50495,224.37665 C 203.50493,224.37662 203.55824,223.6306 203.55824,223.6306 C 203.71942,222.16517 203.53775,221.01281 202.97206,220.22017 C 202.89834,220.12076 202.79153,219.98954 202.70562,219.90044 C 202.56494,219.75681 202.35364,219.59264 202.17275,219.47413 C 201.30037,218.92463 199.93572,218.62151 198.17613,218.62151 C 195.83998,218.62153 194.09426,219.02863 192.90061,219.84715 C 191.74105,220.64861 191.00781,221.54385 190.76908,222.61813 C 190.53033,223.70947 190.92254,224.28285 191.19539,224.58979 C 191.20389,224.59828 191.23832,224.63356 191.24866,224.64308 C 191.59418,224.93753 192.79402,225.62784 196.52419,226.50816 C 199.90051,227.32667 202.13651,228.06205 203.39837,228.69298 C 205.30824,229.66494 206.64256,230.92468 207.34171,232.47644 C 208.04082,234.01116 208.19431,235.80801 207.76801,237.75197 C 207.34171,239.64476 206.37612,241.39049 204.94373,243.02751 C 203.52841,244.66451 201.72726,245.96048 199.56162,246.86424 C 197.41302,247.75096 195.05558,248.24973 192.63416,248.24973 C 189.56476,248.24972 187.10073,247.78506 185.17382,246.86424 C 183.16165,245.90933 181.71008,244.40234 180.85748,242.44133 C 180.03897,240.53147 179.86418,238.36371 180.32459,235.99347 C 180.32459,235.99344 180.48446,235.24742 180.48446,235.24742 C 180.48446,235.24742 186.6126,235.24742 186.6126,235.24742 C 186.6126,235.24742 186.55931,235.99347 186.55931,235.99347 C 186.40583,237.40879 186.55718,238.55129 186.93233,239.4039 C 187.29042,240.22243 187.97252,240.90023 189.06385,241.42886 C 190.22339,241.99156 191.67283,242.28146 193.3269,242.28146 C 194.81045,242.28145 196.16611,242.03207 197.37681,241.58873 C 198.57046,241.16243 199.51899,240.59969 200.20108,239.8835 C 200.8661,239.16728 201.25619,238.41062 201.42671,237.5921 C 201.59723,236.85886 201.55673,236.2386 201.26684,235.72702 C 200.94285,235.18138 200.30126,234.69749 199.29519,234.28824 C 199.29519,234.28823 194.07293,232.74288 194.07293,232.74288 C 191.15701,232.00965 189.19388,231.3105 188.05138,230.61136 C 186.49961,229.69055 185.38057,228.50967 184.80079,227.09434 C 184.22102,225.69603 184.15921,224.14643 184.53436,222.45826 C 184.92656,220.65073 185.79835,218.93059 187.14547,217.39589 C 188.50967,215.84412 190.27029,214.62704 192.36772,213.82558 C 194.22215,213.13018 196.17368,212.72237 198.22941,212.65324 z M 254.18201,212.75982 C 254.51926,212.73355 254.83637,212.75982 255.19448,212.75982 C 255.19449,212.75982 259.03123,213.18612 259.03123,213.18612 C 259.03122,213.18612 260.31014,213.2927 260.31014,213.2927 C 260.31016,213.29271 258.44506,218.03534 258.44506,218.03534 C 258.44505,218.03536 258.07204,218.78138 258.07204,218.78138 C 258.07204,218.78136 255.1412,218.51494 255.1412,218.51494 C 254.27579,218.51494 253.64007,218.64846 253.22282,218.94124 C 253.19511,218.96217 253.14182,219.02544 253.11624,219.04782 C 253.06034,219.09686 252.96633,219.1824 252.90309,219.26098 C 252.6465,219.59749 252.33397,220.19884 252.10377,221.28593 C 252.10375,221.28593 251.99293,221.74633 251.89062,222.13854 C 253.23775,222.13855 256.47339,222.13854 256.47339,222.13854 C 256.47339,222.13855 255.30106,227.41406 255.30106,227.41406 C 255.30106,227.41405 251.9503,227.41406 250.82486,227.41406 C 250.4838,228.94875 246.29536,247.71686 246.29536,247.71686 C 246.29534,247.71684 240.11393,247.71686 240.11393,247.71686 C 240.11391,247.71684 244.13186,229.68201 244.64343,227.41406 C 243.60322,227.41405 241.07312,227.41406 241.07312,227.41406 C 241.07312,227.41405 242.24546,222.13854 242.24546,222.13854 C 242.24547,222.13855 244.7905,222.13854 245.76247,222.13854 C 245.93299,221.4053 246.18877,220.4866 246.18877,220.4866 C 246.56393,218.78138 246.95612,217.55575 247.46768,216.70314 C 248.16685,215.52655 249.15374,214.54177 250.39855,213.82558 C 251.42382,213.22983 252.72053,212.87364 254.18201,212.75982 z M 268.94283,213.02626 C 268.94281,213.02625 267.32713,220.2969 266.91788,222.13854 C 268.11152,222.13855 270.91449,222.13854 270.91449,222.13854 C 270.91449,222.13855 269.74216,227.41406 269.74216,227.41406 C 269.74214,227.41405 266.80277,227.41406 265.74554,227.41406 C 265.42153,228.88053 262.86798,240.25652 262.86798,240.25652 C 262.868,240.2565 262.65482,241.62283 262.65482,242.01503 C 262.6551,242.02808 262.65376,242.05871 262.65482,242.06831 C 262.65566,242.07234 262.65362,242.11828 262.65482,242.1216 C 262.65646,242.12429 262.70597,242.11946 262.7081,242.1216 C 262.7081,242.12158 263.34757,242.17489 263.34757,242.17489 C 263.34757,242.17489 266.27842,241.96174 266.27842,241.96174 C 266.27842,241.96174 265.95869,246.70438 265.95869,246.70438 C 265.95871,246.70438 266.01199,247.55699 266.01199,247.55699 C 266.01197,247.55697 261.80221,248.03659 261.80221,248.03659 C 260.13111,248.03657 258.90546,247.76376 258.01875,247.18399 C 257.0809,246.57007 256.53521,245.75585 256.31353,244.73273 C 256.27942,244.54514 256.20695,244.27231 256.20695,243.88012 C 256.20695,243.11276 256.3519,241.81467 256.84641,239.56378 C 256.84643,239.5638 259.08664,229.52854 259.56411,227.41406 C 258.76268,227.41405 256.63326,227.41406 256.63326,227.41406 C 256.63328,227.41405 257.80559,222.13854 257.80559,222.13854 C 257.80557,222.13855 259.88383,222.13854 260.73645,222.13854 C 261.00926,220.91079 261.96207,216.70314 261.96207,216.70314 C 261.96207,216.70316 266.91788,214.09202 266.91788,214.09202 C 266.91787,214.09204 268.94283,213.02626 268.94283,213.02626 z M 72.5759,213.23941 C 72.57592,213.23941 96.55558,213.23941 96.55558,213.23941 C 96.55558,213.23941 95.22338,219.20769 95.22338,219.20769 C 95.22338,219.20771 79.22627,219.20769 77.69157,219.20769 C 77.41875,220.41842 76.32526,225.32091 75.93306,227.09434 C 78.14986,227.09434 91.12019,227.09434 91.12019,227.09434 C 91.12019,227.09434 89.78798,233.0626 89.78798,233.0626 C 89.78797,233.0626 76.13556,233.0626 74.60085,233.0626 C 74.27686,234.54615 71.35027,247.71686 71.35027,247.71686 C 71.35029,247.71684 64.90241,247.71686 64.90241,247.71686 C 64.90242,247.71684 72.5759,213.23941 72.5759,213.23941 z M 104.70866,221.65895 C 104.94933,221.62939 105.21224,221.65895 105.4547,221.65895 C 106.9894,221.65895 108.40687,222.12575 109.77105,223.09772 C 109.77105,223.09774 110.62365,223.68389 110.62365,223.68389 C 110.62365,223.68389 107.31979,229.11929 107.31979,229.11929 C 107.31979,229.11927 106.4139,228.47983 106.4139,228.47983 C 105.74886,228.05354 105.03267,227.84037 104.28237,227.84037 C 103.63438,227.84039 103.03116,228.07057 102.41728,228.47983 C 101.76931,228.90613 101.22788,229.47098 100.81864,230.23834 C 100.10244,231.55138 99.57808,233.02211 99.21999,234.60797 C 99.21999,234.60798 96.34243,247.71686 96.34243,247.71686 C 96.34243,247.71684 90.161,247.71686 90.161,247.71686 C 90.161,247.71684 95.86284,222.13854 95.86284,222.13854 C 95.86286,222.13855 101.61796,222.13854 101.61796,222.13854 C 101.61796,222.13855 101.41972,222.91442 101.35151,223.2043 C 101.62435,222.99969 101.9121,222.71831 102.15084,222.56484 C 102.97681,222.07194 103.84921,221.76449 104.70866,221.65895 z M 123.0398,221.65895 C 123.41199,221.6308 123.77839,221.65895 124.15886,221.65895 C 127.63752,221.65895 130.26994,222.87817 131.99221,225.28254 C 133.06649,226.83428 133.64416,228.75266 133.64416,231.03766 C 133.64416,232.29951 133.48855,233.65731 133.16457,235.14085 C 133.16457,235.14085 132.68496,237.00594 132.68496,237.00594 C 132.68496,237.00592 117.05235,237.00594 115.31302,237.00594 C 115.27891,237.36402 115.25973,237.74771 115.25973,238.0717 C 115.25973,239.40179 115.53256,240.44835 116.11234,241.21571 C 116.38784,241.59084 116.70724,241.9287 117.07153,242.17489 C 117.75831,242.62278 118.64487,242.86764 119.68265,242.86764 C 120.94453,242.86762 122.0529,242.52019 123.09309,241.85516 C 124.08214,241.22423 125.02853,240.21602 125.86408,238.81774 C 125.86408,238.81771 132.47181,238.81774 132.47181,238.81774 C 132.47181,238.81771 131.88565,240.09665 131.88565,240.09665 C 130.62378,242.6545 128.86314,244.64959 126.6634,246.06493 C 124.46367,247.48026 121.83549,248.24973 118.93661,248.24973 C 115.16807,248.24972 112.36298,247.03051 110.62365,244.62615 C 108.90139,242.27292 108.5305,239.02022 109.45132,234.92769 C 110.37215,230.76696 112.20952,227.44178 114.88671,225.12267 C 117.28629,223.04205 120.00916,221.88799 123.0398,221.65895 z M 150.80295,221.65895 C 151.17513,221.6308 151.54152,221.65895 151.92199,221.65895 C 155.40066,221.65895 158.03309,222.87817 159.75536,225.28254 C 160.82965,226.83428 161.40729,228.75266 161.40729,231.03766 C 161.40729,232.28246 161.25169,233.62107 160.92769,235.08756 C 160.92769,235.08758 160.44811,237.00594 160.44811,237.00594 C 160.44811,237.00592 144.81548,237.00594 143.07616,237.00594 C 143.05909,237.24464 143.03992,237.45996 143.02287,237.69869 C 143.01008,237.78821 143.02847,237.9241 143.02287,238.01841 C 143.02237,238.03379 143.02287,238.05678 143.02287,238.0717 C 143.02287,238.3275 143.05911,238.579 143.07616,238.81774 C 143.16139,239.7897 143.41508,240.60183 143.87548,241.21571 C 143.96315,241.33507 144.04556,241.48241 144.14192,241.58873 C 144.92293,242.42427 146.02832,242.86764 147.44579,242.86764 C 148.70767,242.86762 149.8331,242.52019 150.85624,241.85516 C 151.84528,241.22423 152.79166,240.21602 153.62722,238.81774 C 153.62722,238.81771 160.28824,238.81774 160.28824,238.81774 C 160.28823,238.81771 159.64878,240.09665 159.64878,240.09665 C 158.38692,242.6545 156.62628,244.64959 154.42654,246.06493 C 152.2268,247.48026 149.59863,248.24973 146.69976,248.24973 C 142.93123,248.24972 140.12613,247.03051 138.3868,244.62615 C 137.26135,243.09143 136.73486,241.13684 136.73486,238.81774 C 136.73486,238.45962 136.75404,238.07383 136.78815,237.69869 C 136.85638,236.81198 136.99278,235.91673 137.21446,234.92769 C 138.1353,230.78401 139.91937,227.44178 142.59656,225.12267 C 144.99613,223.04205 147.77231,221.88799 150.80295,221.65895 z M 226.41886,221.65895 C 226.7997,221.62966 227.14998,221.65895 227.53791,221.65895 C 231.08478,221.65895 233.81101,222.85899 235.58443,225.22925 C 237.34083,227.59948 237.76712,230.79679 236.86334,234.82111 C 236.16421,237.95874 235.15387,240.49311 233.77264,242.33476 C 232.39138,244.17641 230.63076,245.68125 228.55038,246.70438 C 226.4871,247.72752 224.30225,248.24973 222.10252,248.24973 C 218.48745,248.24972 215.79533,247.01345 214.056,244.62615 C 212.93054,243.10851 212.35078,241.15389 212.35078,238.81774 C 212.3508,237.55587 212.48934,236.21514 212.83038,234.71455 C 213.85353,230.14454 215.9424,226.66377 219.01181,224.42993 C 221.26482,222.80359 223.75295,221.86387 226.41886,221.65895 z M 320.04619,221.65895 C 320.49579,221.6312 320.91212,221.65895 321.37839,221.65895 C 323.52698,221.65895 325.21514,221.87635 326.49406,222.40497 C 327.85824,222.95066 328.82595,223.72226 329.37162,224.64308 C 329.90026,225.51271 330.17095,226.58064 330.17095,227.89365 C 330.17096,227.89367 329.53147,231.78369 329.53147,231.78369 C 329.5315,231.78369 328.35915,237.05923 328.35915,237.05923 C 327.35304,241.56099 327.13139,243.24918 327.08022,243.88012 C 327.02907,244.73274 327.10793,245.56402 327.34667,246.33137 C 327.34669,246.33135 327.77297,247.71686 327.77297,247.71686 C 327.77299,247.71684 321.48497,247.71686 321.48497,247.71686 C 321.48495,247.71684 321.21852,246.91753 321.21852,246.91753 C 321.11621,246.54241 321.14605,246.06493 321.11195,245.63862 C 319.9183,246.37187 318.72251,247.02198 317.64822,247.39713 C 316.06238,247.94282 314.41683,248.24973 312.74571,248.24973 C 309.84685,248.24972 307.70039,247.49519 306.40441,246.01163 C 305.41539,244.9203 304.96564,243.58596 304.96564,242.06831 C 304.96562,241.48854 305.04237,240.88744 305.17878,240.25652 C 305.46866,238.96055 305.99516,237.76049 306.83072,236.6862 C 307.64923,235.62894 308.61695,234.75931 309.70828,234.12838 C 310.76554,233.49746 311.94426,233.04983 313.17202,232.74288 C 313.172,232.74288 316.95548,232.10342 316.95548,232.10342 C 319.87142,231.76236 322.04769,231.33821 323.6165,230.8778 C 323.65062,230.70728 323.72307,230.50478 323.72307,230.50478 C 323.97033,229.4076 323.93939,228.5829 323.66978,228.1601 C 323.64994,228.13283 323.5856,228.07696 323.56321,228.05352 C 323.50565,227.99217 323.41718,227.89573 323.35005,227.84037 C 322.7087,227.33284 321.61499,227.09434 320.15277,227.09434 C 318.4987,227.09434 317.27521,227.36505 316.42259,227.89365 C 315.58704,228.42228 314.81328,229.38999 314.1312,230.77121 C 314.13119,230.7712 307.68333,230.77121 307.68333,230.77121 C 307.68335,230.7712 308.2695,229.4923 308.2695,229.4923 C 309.03683,227.71885 309.95128,226.24812 311.09378,225.12267 C 312.23628,223.9972 313.7795,223.12543 315.56998,222.51156 C 316.94214,222.05859 318.44048,221.75802 320.04619,221.65895 z M 347.0633,221.65895 C 347.30376,221.62939 347.56686,221.65895 347.80933,221.65895 C 349.36106,221.65895 350.81478,222.12575 352.17896,223.09772 C 352.17898,223.09774 352.97828,223.68389 352.97828,223.68389 C 352.97829,223.68389 349.67442,229.11929 349.67442,229.11929 C 349.67443,229.11927 348.76852,228.47983 348.76852,228.47983 C 348.10349,228.05354 347.42351,227.84037 346.69028,227.84037 C 346.04227,227.84039 345.40284,228.07057 344.77189,228.47983 C 344.12392,228.90613 343.65285,229.47098 343.22655,230.23834 C 342.52739,231.55138 341.98599,233.02211 341.6279,234.60797 C 341.62788,234.60798 338.69705,247.71686 338.69705,247.71686 C 338.69707,247.71684 332.51563,247.71686 332.51563,247.71686 C 332.51563,247.71684 338.21745,222.13854 338.21745,222.13854 C 338.21744,222.13855 343.97257,222.13854 343.97257,222.13854 C 343.97257,222.13855 343.82763,222.91442 343.75943,223.2043 C 344.03225,222.99969 344.30296,222.71831 344.55875,222.56484 C 345.37138,222.07194 346.20446,221.76449 347.0633,221.65895 z M 365.34113,221.65895 C 365.71298,221.6308 366.07972,221.65895 366.46019,221.65895 C 369.93885,221.65895 372.58832,222.87817 374.29356,225.28254 C 375.38491,226.83428 375.94549,228.75266 375.94549,231.03766 C 375.94547,232.29951 375.73659,233.65731 375.4126,235.14085 C 375.4126,235.14085 374.9863,237.00594 374.9863,237.00594 C 374.98629,237.00592 359.33662,237.00594 357.61436,237.00594 C 357.58025,237.36402 357.50777,237.74771 357.50777,238.0717 C 357.50777,239.40179 357.79766,240.44835 358.36039,241.21571 C 358.44805,241.33507 358.58339,241.48241 358.68011,241.58873 C 358.73613,241.6484 358.83423,241.74646 358.89327,241.80187 C 359.65562,242.49489 360.69308,242.86764 361.98397,242.86764 C 363.24586,242.86762 364.35424,242.52019 365.39442,241.85516 C 366.38347,241.22423 367.31281,240.21602 368.16541,238.81774 C 368.16539,238.81771 374.82643,238.81774 374.82643,238.81774 C 374.82643,238.81771 374.18697,240.09665 374.18697,240.09665 C 372.9251,242.6545 371.14742,244.64959 368.96473,246.06493 C 366.74796,247.48026 364.15388,248.24973 361.23794,248.24973 C 357.46943,248.24972 354.7176,247.03051 352.97828,244.62615 C 351.25598,242.27292 350.84888,239.02022 351.75265,234.92769 C 352.67346,230.76696 354.45756,227.44178 357.13476,225.12267 C 359.54951,223.04205 362.31328,221.88799 365.34113,221.65895 z M 272.03353,222.13854 C 272.03355,222.13855 278.37484,222.13854 278.37484,222.13854 C 278.37486,222.13855 279.1571,237.31715 279.17415,237.53881 C 279.42993,236.99525 279.62839,236.53794 279.65376,236.47306 C 279.65377,236.47307 286.6345,222.13854 286.6345,222.13854 C 286.63452,222.13855 292.44291,222.13854 292.44291,222.13854 C 292.4429,222.13855 292.97579,237.13382 292.97579,237.21908 C 293.14634,236.91217 300.91573,222.13854 300.91573,222.13854 C 300.91571,222.13855 307.20374,222.13854 307.20374,222.13854 C 307.20373,222.13855 293.34881,247.71686 293.34881,247.71686 C 293.34883,247.71684 287.64698,247.71686 287.64698,247.71686 C 287.64698,247.71684 287.09492,233.84702 287.06081,233.0626 C 284.70758,237.8884 279.92018,247.71686 279.92018,247.71686 C 279.92018,247.71684 274.0585,247.71686 274.0585,247.71686 C 274.0585,247.71684 272.03353,222.13854 272.03353,222.13854 z M 123.14638,226.98776 C 121.67745,227.04978 120.34343,227.57925 119.09649,228.5864 C 118.10747,229.37081 117.44028,230.44724 116.91166,231.62383 C 116.91166,231.62385 127.40943,231.62383 127.40943,231.62383 C 127.4265,231.43627 127.46272,231.20819 127.46272,231.03766 C 127.4627,230.06571 127.29006,229.31113 126.98313,228.79956 C 126.23285,227.57179 125.12018,226.98776 123.46611,226.98776 C 123.36701,226.98776 123.24431,226.98364 123.14638,226.98776 z M 150.90951,226.98776 C 149.44059,227.04978 148.10656,227.57925 146.85961,228.5864 C 145.87057,229.37081 145.22048,230.44724 144.67481,231.62383 C 144.67481,231.62385 155.17257,231.62383 155.17257,231.62383 C 155.18961,231.43627 155.22586,231.20819 155.22586,231.03766 C 155.22585,230.06571 155.07026,229.31113 154.74626,228.79956 C 154.59732,228.55017 154.39583,228.30217 154.21338,228.10682 C 153.50139,227.3711 152.52148,226.98776 151.22925,226.98776 C 151.13014,226.98776 151.00745,226.98364 150.90951,226.98776 z M 365.66087,226.98776 C 364.15031,227.03429 362.73962,227.5457 361.4511,228.5864 C 360.47912,229.37081 359.81195,230.44724 359.26628,231.62383 C 359.2663,231.62385 369.71077,231.62383 369.71077,231.62383 C 369.7278,231.43627 369.76406,231.20819 369.76406,231.03766 C 369.76405,230.06571 369.60846,229.31113 369.28446,228.79956 C 368.55122,227.58884 367.4215,227.00482 365.76744,226.98776 C 365.71842,226.98829 365.7096,226.98626 365.66087,226.98776 z M 226.04585,227.09434 C 224.63622,227.26173 223.32549,227.90485 222.10252,229.01271 C 220.63604,230.3428 219.5724,232.43168 218.95853,235.19414 C 218.70274,236.35369 218.5855,237.34485 218.5855,238.23156 C 218.58552,239.44226 218.81783,240.39293 219.27825,241.10912 C 219.40082,241.29296 219.56341,241.48723 219.70456,241.64201 C 220.4626,242.44689 221.52115,242.86764 222.84856,242.86764 C 224.57082,242.86762 226.08848,242.22605 227.53791,240.89597 C 229.00443,239.54883 230.05098,237.43863 230.68191,234.60797 C 231.26171,232.01602 231.18069,230.08061 230.36219,228.85285 C 229.57779,227.65919 228.43103,227.09434 226.84518,227.09434 C 226.57607,227.09434 226.30688,227.06333 226.04585,227.09434 z M 322.33758,236.41977 C 320.88817,236.81195 319.26391,237.14235 317.11534,237.43225 C 315.51245,237.67099 314.36993,237.92249 313.70489,238.17828 C 313.12513,238.417 312.65831,238.74739 312.26611,239.19076 C 311.89095,239.61703 311.63945,240.06468 311.52009,240.57625 C 311.486,240.78089 311.46679,240.99189 311.46679,241.16242 C 311.46679,241.17626 311.46648,241.202 311.46679,241.21571 C 311.46858,241.25629 311.46234,241.33641 311.46679,241.37556 C 311.47747,241.45293 311.49896,241.56996 311.52009,241.64201 C 311.52771,241.66574 311.5646,241.7254 311.57336,241.74858 C 311.59202,241.79442 311.60351,241.86469 311.62665,241.90845 C 311.65092,241.95171 311.70455,242.02694 311.73323,242.06831 C 311.77787,242.12968 311.83873,242.22391 311.8931,242.28146 C 312.31941,242.75892 313.16988,242.97421 314.39764,242.97421 C 315.74479,242.97422 317.04074,242.71843 318.23439,242.1216 C 319.41101,241.54183 320.35952,240.67642 321.05866,239.67034 C 321.57025,238.95414 321.97949,237.85214 322.33758,236.41977 z" id="path2579" style="fill:#bd0000;fill-opacity:1;fill-rule:evenodd;stroke:none;stroke-width:1pt;stroke-linecap:butt;stroke-linejoin:miter"/>
      <path d="M 365.83525,227.0064 C 365.81819,227.0064 365.80114,227.0064 365.78409,227.0064 C 367.43816,227.02345 368.5295,227.58618 369.26274,228.79688 C 369.58674,229.30845 369.75726,230.0758 369.75726,231.04778 C 369.75726,231.2183 369.72315,231.43998 369.7061,231.62755 C 369.7061,231.62755 369.77431,231.62755 369.77431,231.62755 C 369.77431,231.43998 369.80841,231.2183 369.80841,231.04778 C 369.80841,230.0758 369.65494,229.30845 369.33095,228.79688 C 368.59771,227.56912 367.48931,227.0064 365.83525,227.0064 z" id="path2583" style="fill:#bd0000;fill-opacity:1;fill-rule:evenodd;stroke:none;stroke-width:1pt;stroke-linecap:butt;stroke-linejoin:miter"/>
      <g id="g2587" style="fill:#bd0000;fill-opacity:1;fill-rule:evenodd;stroke:none;stroke-width:1pt;stroke-linecap:butt;stroke-linejoin:miter" transform="matrix(1.705222,0,0,1.705222,18.79629,306.5396)">
        <path d="M 0,36 C 0,36 7.46,36 7.46,36 C 7.46,36 10.81,22 10.81,22 C 10.81,22 22.93,22 22.93,22 C 22.93,22 24.49,16 24.49,16 C 24.49,16 12.32,16 12.32,16 C 12.32,16 14.34,7 14.34,7 C 14.34,7 27.29,7 27.29,7 C 27.29,7 28.85,0 28.85,0 C 28.85,0 8.4,0 8.4,0 C 8.4,0 0,36 0,36 z" id="path2589" style="fill:#bd0000;fill-opacity:1"/>
      </g>
      <g id="g2591" style="fill:#bd0000;fill-opacity:1;fill-rule:evenodd;stroke:none;stroke-width:1pt;stroke-linecap:butt;stroke-linejoin:miter" transform="matrix(1.705222,0,0,1.705222,63.04679,323.5918)">
        <path d="M 7.51,26 C 7.51,26 9.75,16.6 9.75,16.6 C 10.93,11.51 13.42,7 18.13,7 C 18.55,7 18.96,7.21 19.27,7.26 C 19.27,7.26 21.09,0.05 21.09,0.05 C 20.67,0.05 20.21,0 19.69,0 C 16.22,0 13.31,2.44 11.37,5.94 C 11.37,5.94 11.17,5.94 11.17,5.94 C 11.46,4.23 11.71,2.61 11.9,1 C 11.9,1 5.47,1 5.47,1 C 5.1,3.08 4.53,7.15 3.66,10.82 C 3.66,10.82 0,26 0,26 C 0,26 7.51,26 7.51,26 z" id="path2593" style="fill:#bd0000;fill-opacity:1"/>
      </g>
      <g id="g2595" style="fill:#bd0000;fill-opacity:1;fill-rule:evenodd;stroke:none;stroke-width:1pt;stroke-linecap:butt;stroke-linejoin:miter" transform="matrix(1.705222,0,0,1.705222,98.22559,323.5918)">
        <path d="M 20.06,19.25 C 17.99,20.26 15.63,20 12.88,20 C 10.71,20 9.03,19.62 8.11,18.88 C 7.63,18.07 7.43,16.81 7.47,16 C 17.6,16.27 23.99,13.93 24.31,7.53 C 24.55,2.7 21.02,0 15.89,0 C 6.73,0 0.73,8.08 0.34,15.86 C 0,22.65 3.52,26 10.78,26 C 13.57,26 17.27,25.68 20.3,24.77 C 20.3,24.77 20.06,19.25 20.06,19.25 z M 17.32,7.53 C 17.2,9.91 14.26,10.05 8.47,10 C 9.1,7.91 11.22,6 14.69,6 C 16.4,6 17.38,6.65 17.32,7.53 z" id="path2597" style="fill:#bd0000;fill-opacity:1"/>
      </g>
      <g id="g2599" style="fill:#bd0000;fill-opacity:1;fill-rule:evenodd;stroke:none;stroke-width:1pt;stroke-linecap:butt;stroke-linejoin:miter" transform="matrix(1.705222,0,0,1.705222,143.44809,323.5918)">
        <path d="M 20.05,19.25 C 17.98,20.26 15.62,20 12.88,20 C 10.7,20 9.03,19.62 8.11,18.88 C 7.63,18.07 7.42,16.81 7.46,16 C 17.6,16.27 23.98,13.93 24.31,7.53 C 24.55,2.7 21.02,0 15.89,0 C 6.72,0 0.72,8.08 0.33,15.86 C 0,22.65 3.52,26 10.77,26 C 13.57,26 17.27,25.68 20.3,24.77 C 20.3,24.77 20.05,19.25 20.05,19.25 z M 17.32,7.53 C 17.2,9.91 14.26,10.05 8.46,10 C 9.1,7.91 11.21,6 14.68,6 C 16.39,6 17.38,6.65 17.32,7.53 z" id="path2601" style="fill:#bd0000;fill-opacity:1"/>
      </g>
      <g id="g2603" style="fill:#bd0000;fill-opacity:1;fill-rule:evenodd;stroke:none;stroke-width:1pt;stroke-linecap:butt;stroke-linejoin:miter" transform="matrix(1.705222,0,0,1.705222,204.68259,323.5918)">
        <path d="M 22.74,26 C 22.8,22.83 23.56,17.85 24.35,14.58 C 24.35,14.58 27.56,1 27.56,1 C 25.52,0.31 22.34,0 19.28,0 C 6.86,0 0.7,9.2 0.27,17.82 C 0,23.23 2.93,26 7.49,26 C 10.44,26 13.77,24.57 16.36,20.27 C 16.36,20.27 16.47,20.27 16.47,20.27 C 16.27,22.34 16.03,24.35 15.9,26 C 15.9,26 22.74,26 22.74,26 z M 17.61,11.72 C 16.15,18.08 13.17,20 10.95,20 C 8.88,20 7.98,18.53 8.1,16.39 C 8.34,11.56 12.16,6 16.98,6 C 17.76,6 18.37,5.86 18.94,5.72 C 18.94,5.72 17.61,11.72 17.61,11.72 z" id="path2605" style="fill:#bd0000;fill-opacity:1"/>
      </g>
      <g id="g2607" style="fill:#bd0000;fill-opacity:1;fill-rule:evenodd;stroke:none;stroke-width:1pt;stroke-linecap:butt;stroke-linejoin:miter" transform="matrix(1.705222,0,0,1.705222,251.79789,323.5918)">
        <path d="M 0,24.82 C 1.44,25.94 4.46,25.95 7.61,26 C 14.34,26.05 19.42,23.11 19.72,17.71 C 19.89,14.11 17.1,11.98 14.37,10.55 C 12.4,9.6 11.41,8.69 11.46,7.63 C 11.53,6.2 12.87,6 14.84,6 C 17.06,6 18.84,6.27 19.86,6.47 C 19.86,6.47 21.88,1.05 21.88,1.05 C 20.73,0.36 18.43,0 15.48,0 C 8.95,0 4.17,3.45 3.9,8.69 C 3.74,11.93 6.07,14.11 8.89,15.59 C 11.17,16.76 11.95,17.66 11.89,18.93 C 11.82,20.21 10.68,20 8.61,20 C 6.18,20 3.49,19.68 2.07,19.46 C 2.07,19.46 0,24.82 0,24.82 z" id="path2609" style="fill:#bd0000;fill-opacity:1"/>
      </g>
      <g id="g2611" style="fill:#bd0000;fill-opacity:1;fill-rule:evenodd;stroke:none;stroke-width:1pt;stroke-linecap:butt;stroke-linejoin:miter" transform="matrix(1.705222,0,0,1.705222,307.13229,304.8344)">
        <path d="M 7.45,37 C 7.45,37 13.5,12 13.5,12 C 13.5,12 6.09,12 6.09,12 C 6.09,12 0,37 0,37 C 0,37 7.45,37 7.45,37 z M 10.92,9 C 13.46,9 15.72,6.9 15.86,3.3 C 15.98,0.86 14.4,0 12.07,0 C 9.64,0 7.42,1.58 7.29,3.94 C 7.17,6.32 8.75,9 10.92,9 z" id="path2613" style="fill:#bd0000;fill-opacity:1"/>
      </g>
      <g id="g2615" style="fill:#bd0000;fill-opacity:1;fill-rule:evenodd;stroke:none;stroke-width:1pt;stroke-linecap:butt;stroke-linejoin:miter" transform="matrix(1.705222,0,0,1.705222,331.49989,324.7684)">
        <path d="M 7.46,25.31 C 7.46,25.31 10.1,14.05 10.1,14.05 C 11.47,8.32 14.42,6.31 16.85,6.31 C 18.77,6.31 19.33,7.13 19.24,8.32 C 19.19,9.28 19.04,10.29 18.84,11.19 C 18.84,11.19 15.48,25.31 15.48,25.31 C 15.48,25.31 22.94,25.31 22.94,25.31 C 22.94,25.31 26.48,10.5 26.48,10.5 C 26.75,9.22 27.05,7.31 27.11,6.15 C 27.33,1.64 25.08,0 20.94,0 C 17.62,0 14.39,1.54 11.84,4.88 C 11.84,4.88 11.74,4.88 11.74,4.88 C 11.74,4.88 12.42,0.31 12.42,0.31 C 12.42,0.31 5.84,0.31 5.84,0.31 C 5.41,2.45 4.86,5.04 4.08,8.06 C 4.08,8.06 0,25.31 0,25.31 C 0,25.31 7.46,25.31 7.46,25.31 z" id="path2617" style="fill:#bd0000;fill-opacity:1"/>
      </g>
      <g id="g2619" style="fill:#bd0000;fill-opacity:1;fill-rule:evenodd;stroke:none;stroke-width:1pt;stroke-linecap:butt;stroke-linejoin:miter" transform="matrix(1.705222,0,0,1.705222,398.95849,306.5396)">
        <path d="M 0,36 C 0,36 7.46,36 7.46,36 C 7.46,36 10.82,22 10.82,22 C 10.82,22 22.93,22 22.93,22 C 22.93,22 24.49,16 24.49,16 C 24.49,16 12.32,16 12.32,16 C 12.32,16 14.34,7 14.34,7 C 14.34,7 27.29,7 27.29,7 C 27.29,7 28.85,0 28.85,0 C 28.85,0 8.4,0 8.4,0 C 8.4,0 0,36 0,36 z" id="path2621" style="fill:#bd0000;fill-opacity:1"/>
      </g>
      <g id="g2623" style="fill:#bd0000;fill-opacity:1;fill-rule:evenodd;stroke:none;stroke-width:1pt;stroke-linecap:butt;stroke-linejoin:miter" transform="matrix(1.705222,0,0,1.705222,443.20899,323.5918)">
        <path d="M 7.51,26 C 7.51,26 9.75,16.6 9.75,16.6 C 10.93,11.51 13.42,7 18.13,7 C 18.55,7 18.96,7.21 19.27,7.26 C 19.27,7.26 21.09,0.05 21.09,0.05 C 20.67,0.05 20.21,0 19.69,0 C 16.22,0 13.31,2.44 11.37,5.94 C 11.37,5.94 11.17,5.94 11.17,5.94 C 11.46,4.23 11.71,2.61 11.9,1 C 11.9,1 5.47,1 5.47,1 C 5.11,3.08 4.53,7.15 3.66,10.82 C 3.66,10.82 0,26 0,26 C 0,26 7.51,26 7.51,26 z" id="path2625" style="fill:#bd0000;fill-opacity:1"/>
      </g>
      <g id="g2627" style="fill:#bd0000;fill-opacity:1;fill-rule:evenodd;stroke:none;stroke-width:1pt;stroke-linecap:butt;stroke-linejoin:miter" transform="matrix(1.705222,0,0,1.705222,478.38779,323.5918)">
        <path d="M 20.06,19.25 C 17.99,20.26 15.63,20 12.88,20 C 10.71,20 9.03,19.62 8.11,18.88 C 7.63,18.07 7.43,16.81 7.47,16 C 17.6,16.27 23.99,13.93 24.31,7.53 C 24.55,2.7 21.02,0 15.89,0 C 6.73,0 0.73,8.08 0.34,15.86 C 0,22.65 3.53,26 10.78,26 C 13.57,26 17.28,25.68 20.3,24.77 C 20.3,24.77 20.06,19.25 20.06,19.25 z M 17.32,7.53 C 17.2,9.91 14.26,10.05 8.47,10 C 9.1,7.91 11.22,6 14.69,6 C 16.4,6 17.38,6.65 17.32,7.53 z" id="path2629" style="fill:#bd0000;fill-opacity:1"/>
      </g>
      <g id="g2631" style="fill:#bd0000;fill-opacity:1;fill-rule:evenodd;stroke:none;stroke-width:1pt;stroke-linecap:butt;stroke-linejoin:miter" transform="matrix(1.705222,0,0,1.705222,523.61019,323.5918)">
        <path d="M 20.05,19.25 C 17.98,20.26 15.62,20 12.88,20 C 10.7,20 9.03,19.62 8.11,18.88 C 7.63,18.07 7.42,16.81 7.46,16 C 17.6,16.27 23.98,13.93 24.31,7.53 C 24.55,2.7 21.02,0 15.89,0 C 6.72,0 0.72,8.08 0.33,15.86 C 0,22.65 3.52,26 10.77,26 C 13.57,26 17.27,25.68 20.3,24.77 C 20.3,24.77 20.05,19.25 20.05,19.25 z M 17.32,7.53 C 17.2,9.91 14.26,10.05 8.46,10 C 9.1,7.91 11.21,6 14.68,6 C 16.39,6 17.38,6.65 17.32,7.53 z" id="path2633" style="fill:#bd0000;fill-opacity:1"/>
      </g>
      <g id="g2635" style="fill:#bd0000;fill-opacity:1;fill-rule:evenodd;stroke:none;stroke-width:1pt;stroke-linecap:butt;stroke-linejoin:miter" transform="matrix(1.705222,0,0,1.705222,568.59399,304.8344)">
        <path d="M 23.31,0 C 23.31,0 20.5,11.36 20.5,11.36 C 19.48,10.94 18.15,11 17.11,11 C 7.53,11 0.75,19.2 0.3,28.08 C 0,34.34 3.34,37 7.64,37 C 10.65,37 13.82,35.67 16.22,32.23 C 16.22,32.23 16.32,32.23 16.32,32.23 C 16.32,32.23 15.75,37 15.75,37 C 15.75,37 22.53,37 22.53,37 C 22.84,34 23.49,30.43 24.22,27.17 C 24.22,27.17 30.71,0 30.71,0 C 30.71,0 23.31,0 23.31,0 z M 17.47,24.42 C 16.3,29.35 13.54,31 11.36,31 C 9.19,31 7.98,29.49 8.13,26.8 C 8.38,21.82 11.8,17 16.25,17 C 17.5,17 18.57,17.19 19.16,17.47 C 19.16,17.47 17.47,24.42 17.47,24.42 z" id="path2637" style="fill:#bd0000;fill-opacity:1"/>
      </g>
      <g id="g2639" style="fill:#bd0000;fill-opacity:1;fill-rule:evenodd;stroke:none;stroke-width:1pt;stroke-linecap:butt;stroke-linejoin:miter" transform="matrix(1.705222,0,0,1.705222,619.25609,323.5918)">
        <path d="M 10.61,26 C 19.31,26 26.02,19.41 26.49,10.44 C 26.78,4.5 23.08,0 16.25,0 C 7.23,0 0.76,7.3 0.31,16.12 C 0,22.54 4.14,26 10.61,26 z M 11.78,20 C 9.24,20 7.84,18.38 7.99,15.96 C 8.19,11.93 10.68,6 14.97,6 C 17.93,6 18.84,8.27 18.72,10.5 C 18.5,14.9 15.82,20 11.78,20 z" id="path2641" style="fill:#bd0000;fill-opacity:1"/>
      </g>
      <g id="g2643" style="fill:#bd0000;fill-opacity:1;fill-rule:evenodd;stroke:none;stroke-width:1pt;stroke-linecap:butt;stroke-linejoin:miter" transform="matrix(1.705222,0,0,1.705222,667.95729,323.5918)">
        <path d="M 7.2,26 C 7.2,26 9.9,14.58 9.9,14.58 C 11.03,9.49 13.85,6 16.38,6 C 18.2,6 18.7,7.33 18.61,9.07 C 18.56,9.97 18.36,10.98 18.15,11.98 C 18.15,11.98 14.81,26 14.81,26 C 14.81,26 22.01,26 22.01,26 C 22.01,26 24.71,14.53 24.71,14.53 C 25.95,9.28 28.61,6 31.09,6 C 32.8,6 33.51,7.22 33.43,8.96 C 33.38,9.97 33.17,11.08 32.91,12.09 C 32.91,12.09 29.67,26 29.67,26 C 29.67,26 36.92,26 36.92,26 C 36.92,26 40.41,11.19 40.41,11.19 C 40.68,9.86 40.99,7.79 41.04,6.73 C 41.26,2.33 39.11,0 35.23,0 C 31.91,0 28.68,1.5 26.23,4.66 C 26.14,2.38 24.51,0 20.47,0 C 17.2,0 14.08,1.48 11.58,4.83 C 11.58,4.83 11.48,4.83 11.48,4.83 C 11.48,4.83 12.15,1 12.15,1 C 12.15,1 5.73,1 5.73,1 C 5.31,3.14 4.8,5.73 4.02,8.75 C 4.02,8.75 0,26 0,26 C 0,26 7.2,26 7.2,26 z" id="path2645" style="fill:#bd0000;fill-opacity:1"/>
      </g>
      <path d="M 409.31125,253.51484 C 410.00346,255.29446 410.6957,257.07117 411.41675,258.80894 C 412.52721,261.16971 413.81071,263.42954 415.35379,265.53939 C 423.68936,276.87025 437.64925,283.07434 455.3731,284.61886 C 455.3731,284.61886 474.43816,284.61886 474.43816,284.61886 C 480.46627,284.14872 486.78283,283.2719 493.33014,281.99127 C 504.62207,279.78337 516.59181,276.39147 529.02302,271.85883 C 538.44017,268.42508 548.11692,264.36259 557.93787,259.64105 C 579.32475,249.3889 601.41828,236.16596 623.09362,220.2087 C 630.23219,214.95788 637.08234,209.57007 643.65849,204.0914 C 649.68662,199.07564 655.46959,193.98198 660.99295,188.83213 C 676.4094,173.97524 688.04745,158.88616 694.63802,145.63723 C 701.50254,131.84033 702.87263,120.04365 697.2483,112.6123 C 693.80157,108.05084 688.03303,105.60641 680.60602,105.031 C 714.06355,79.92629 733.5613,49.47267 726.56698,30.2721 C 724.34602,24.1444 719.45717,19.5729 712.4484,17.0448 C 709.33343,15.9243 705.82897,15.2147 702.0073,14.8917 C 702.0073,14.8917 691.71047,14.8917 691.71047,14.8917 C 677.33239,15.9286 656.42383,21.077 638.68557,29.7702" id="path2647" style="fill:#bd0000;fill-opacity:0;fill-rule:evenodd;stroke:#bd0000;stroke-width:8.52610779;stroke-linecap:butt;stroke-linejoin:miter;stroke-miterlimit:4;stroke-opacity:1"/>
    </g>
  </g>
</svg>