<svg xmlns="http://www.w3.org/2000/svg" viewBox="0 0 600 400" xmlns:xsi="http://www.w3.org/2001/XMLSchema-instance" xsi:schemaLocation="http://www.w3.org/2000/svg file:///home/laaglu/workspaces/laaglu-ws/lib-gwt-svg/src/main/resources/org/vectomatic/dev/svg/impl/gen/SVG.xsd">
	<ellipse cx="170" cy="140" rx="70" ry="40"
		style="fill: blue; stroke: black; opacity: 0.5;">
		<title>ellipse #1</title>
		<desc>This is a beautiful ellipse</desc>
	</ellipse>
	<rect x="50" y="200" width="100" height="60" rx="5" ry="10"
		style="fill: yellow; stroke: black; stroke-dasharray:5,1,1,1;">
		<title>rect #1</title>
		<desc>This is a rect</desc>
	</rect>
	<rect x="250" y="200" width="100" height="60"
		style="fill: green; stroke: black;">
		<title>rect #2</title>
		<desc>This is another rect</desc>
	</rect>
	<circle cx="300" cy="300" r="40" style="fill: orange; stroke: black;">
		<title>circle #1</title>
		<desc>This is a circle</desc>
	</circle>
	<polygon
		points="480,300 450,300 479.696,306.972 449.81,304.358 478.785,313.892 449.24,308.682 477.274,320.706 448.296,312.941 475.175,327.362 446.985,317.101 472.505,333.809 445.315,321.131 469.282,340 443.301,325 465.532,345.886 440.958,328.679 461.284,351.423 438.302,332.139 456.569,356.569 435.355,335.355 451.423,361.284 432.139,338.302 445.886,365.532 428.679,340.958 440,369.282 425,343.301 433.809,372.505 421.131,345.315 427.362,375.175 417.101,346.985 420.706,377.274 412.941,348.296 413.892,378.785 408.682,349.24 406.972,379.696 404.358,349.81 400,380 400,350 393.028,379.696 395.642,349.81 386.108,378.785 391.318,349.24 379.294,377.274 387.059,348.296 372.638,375.175 382.899,346.985 366.191,372.505 378.869,345.315 360,369.282 375,343.301 354.114,365.532 371.321,340.958 348.577,361.284 367.861,338.302 343.431,356.569 364.645,335.355 338.716,351.423 361.698,332.139 334.468,345.886 359.042,328.679 330.718,340 356.699,325 327.495,333.809 354.685,321.131 324.825,327.362 353.015,317.101 322.726,320.706 351.704,312.941 321.215,313.892 350.76,308.682 320.304,306.972 350.19,304.358 320,300 350,300 320.304,293.028 350.19,295.642 321.215,286.108 350.76,291.318 322.726,279.294 351.704,287.059 324.825,272.638 353.015,282.899 327.495,266.191 354.685,278.869 330.718,260 356.699,275 334.468,254.114 359.042,271.321 338.716,248.577 361.698,267.861 343.431,243.431 364.645,264.645 348.577,238.716 367.861,261.698 354.114,234.468 371.321,259.042 360,230.718 375,256.699 366.191,227.495 378.869,254.685 372.638,224.825 382.899,253.015 379.294,222.726 387.059,251.704 386.108,221.215 391.318,250.76 393.028,220.304 395.642,250.19 400,220 400,250 406.972,220.304 404.358,250.19 413.892,221.215 408.682,250.76 420.706,222.726 412.941,251.704 427.362,224.825 417.101,253.015 433.809,227.495 421.131,254.685 440,230.718 425,256.699 445.886,234.468 428.679,259.042 451.423,238.716 432.139,261.698 456.569,243.431 435.355,264.645 461.284,248.577 438.302,267.861 465.532,254.114 440.958,271.321 469.282,260 443.301,275 472.505,266.191 445.315,278.869 475.175,272.638 446.985,282.899 477.274,279.294 448.296,287.059 478.785,286.108 449.24,291.318 479.696,293.028 449.81,295.642"
		style="fill: pink; stroke: black;">
		<title>polygon #1</title>
		<desc>This is a big polygon</desc>
	</polygon>
	<polygon points="220,220 245,225 270,280 310,220 270,350 230,310"
		style="fill: blue; stroke: black;">
		<title>polygon #2</title>
		<desc>This is a small polygon</desc>
	</polygon>
	<polyline points="20,220 45,225 70,280 110,220 70,350 30,310"
		style="fill: none; stroke: purple;">
		<title>polyline #1</title>
		<desc>A polyline</desc>
	</polyline>
	<g>
		<line x1="10" y1="10" x2="200" y2="20" style="stroke: green;">
			<title>line #1</title>
			<desc>A line</desc>
		</line>
		<line x1="10" y1="20" x2="200" y2="32" style="stroke: black;">
			<title>line #2</title>
			<desc>A line pour qu'elle revienne</desc>
		</line>
	</g>
	<path style="fill:none;stroke:black"
     d="M 10,50 h 20 v 20 l 20,-20 q 20,0 20,20 c 5,-20 15,-20 20,0" />
	<path style="fill:purple;stroke:black"
	 d="M 20,300 C 20,270 200,270 200,300 200,330 140,400 100,400 70,400 20,330 20,300 Z"/>
</svg>