<svg height="100%" version="1.1" viewBox="0 0 195 82" width="100%" xmlns="http://www.w3.org/2000/svg" xmlns:svg="http://www.w3.org/2000/svg">
  <g id="SVG-label" transform="matrix(0.38684747,0,0,0.51744583,23.906294,28.752596)">
    <g id="SVG" style="fill:#005a9c">
      <path d="M 5.482,31.319 C 2.163,28.001 0.109,23.419 0.109,18.358 0.109,8.232 8.322,0.024 18.443,0.024 c 10.126,0 18.339,8.208 18.339,18.334 l -10.74,0 c 0,-4.194 -3.404,-7.593 -7.599,-7.593 -4.194,0 -7.593,3.399 -7.593,7.593 0,2.095 0.851,3.993 2.22,5.363 l 0.005,0 c 1.375,1.38 2.52,1.779 5.368,2.231 l 0,0 c 5.066,0.527 9.648,2.054 12.966,5.372 l 0,0 c 3.319,3.319 5.373,7.901 5.373,12.962 0,10.126 -8.213,18.339 -18.339,18.339 -10.121,0 -18.334,-8.213 -18.334,-18.339 l 10.741,0 c 0,4.194 3.399,7.598 7.593,7.598 4.195,0 7.599,-3.404 7.599,-7.598 0,-2.095 -0.851,-3.988 -2.221,-5.363 l -0.005,0 c -1.375,-1.375 -3.348,-1.849 -5.373,-2.226 l 0,-0.005 C 13.533,35.939 8.8,34.638 5.482,31.319 l 0,0 0,0 z" id="S"/>
      <path d="m 73.452,0.024 -12.97,62.601 -10.74,0 -12.96,-62.601 10.74,0 7.6,36.663 7.59,-36.663 10.74,0 z" id="V"/>
      <path d="m 91.792,25.952 18.334,0 0,18.334 0.005,0 c 0,10.127 -8.213,18.34 -18.339,18.34 -10.127,0 -18.334,-8.213 -18.334,-18.34 l 0,0 0,-25.927 -0.005,0 c 0,-10.126 8.212,-18.334 18.339,-18.334 10.121,0 18.334,8.208 18.334,18.334 l -10.741,0 c 0,-4.19 -3.404,-7.594 -7.593,-7.594 -4.195,0 -7.594,3.404 -7.594,7.594 l 0,25.927 0,0 c 0,4.195 3.399,7.594 7.594,7.594 4.189,0 7.588,-3.399 7.593,-7.589 l 0,-0.005 0,-7.588 -7.593,0 0,-10.746 0,0 z" id="G"/>
    </g>
  </g>
  <g id="g3404" transform="matrix(0.7972306,0,0,0.77197607,64.49723,-17.474762)">
    <path d="m 9,13 c 0,1.104569 -0.8954305,2 -2,2 -1.1045695,0 -2,-0.895431 -2,-2 0,-1.104569 0.8954305,-2 2,-2 1.1045695,0 2,0.895431 2,2 z" id="path5571" style="fill:#ffffff;fill-opacity:1;stroke:#000000;stroke-width:1.5;stroke-linecap:round;stroke-linejoin:round;stroke-miterlimit:4;stroke-opacity:1;stroke-dasharray:none" transform="matrix(1.7798318,0,0,1.7798318,-7.394493,29.146611)"/>
    <path d="m 9,13 c 0,1.104569 -0.8954305,2 -2,2 -1.1045695,0 -2,-0.895431 -2,-2 0,-1.104569 0.8954305,-2 2,-2 1.1045695,0 2,0.895431 2,2 z" id="path5573" style="fill:#ffffff;fill-opacity:1;stroke:#000000;stroke-width:1.5;stroke-linecap:round;stroke-linejoin:round;stroke-miterlimit:4;stroke-opacity:1;stroke-dasharray:none" transform="matrix(1.7798318,0,0,1.7798318,21.972732,21.137368)"/>
    <path d="m 9,13 c 0,1.104569 -0.8954305,2 -2,2 -1.1045695,0 -2,-0.895431 -2,-2 0,-1.104569 0.8954305,-2 2,-2 1.1045695,0 2,0.895431 2,2 z" id="path5575" style="fill:#ffffff;fill-opacity:1;stroke:#000000;stroke-width:1.5;stroke-linecap:round;stroke-linejoin:round;stroke-miterlimit:4;stroke-opacity:1;stroke-dasharray:none" transform="matrix(1.7798318,0,0,1.7798318,51.339957,29.146611)"/>
    <path d="m 9,13 c 0,1.104569 -0.8954305,2 -2,2 -1.1045695,0 -2,-0.895431 -2,-2 0,-1.104569 0.8954305,-2 2,-2 1.1045695,0 2,0.895431 2,2 z" id="path5577" style="fill:#ffffff;fill-opacity:1;stroke:#000000;stroke-width:1.5;stroke-linecap:round;stroke-linejoin:round;stroke-miterlimit:4;stroke-opacity:1;stroke-dasharray:none" transform="matrix(1.7798318,0,0,1.7798318,6.8441617,22.9172)"/>
    <path d="m 9,13 c 0,1.104569 -0.8954305,2 -2,2 -1.1045695,0 -2,-0.895431 -2,-2 0,-1.104569 0.8954305,-2 2,-2 1.1045695,0 2,0.895431 2,2 z" id="path5579" style="fill:#ffffff;fill-opacity:1;stroke:#000000;stroke-width:1.5;stroke-linecap:round;stroke-linejoin:round;stroke-miterlimit:4;stroke-opacity:1;stroke-dasharray:none" transform="matrix(1.7798318,0,0,1.7798318,37.101303,23.807116)"/>
    <path d="m 10.403825,77.202071 c 15.128571,-2.669748 37.376469,-2.669748 48.05546,0 l 3.559663,-21.357982 -12.458822,19.57815 0,-24.917645 -9.789076,24.027729 -5.339495,-26.697477 -5.339496,26.697477 -9.789075,-24.917645 0,25.807561 -12.4588223,-19.57815 3.5596633,21.357982 z" id="path5581" style="fill:#ffffff;fill-opacity:1;fill-rule:evenodd;stroke:#000000;stroke-width:2.66974783;stroke-linecap:butt;stroke-linejoin:round;stroke-miterlimit:4;stroke-opacity:1;stroke-dasharray:none"/>
    <path d="m 10.403825,77.202071 c 0,3.559664 2.669748,3.559664 4.44958,7.119328 1.779832,2.669747 1.779832,1.779832 0.889916,6.229411 -2.669748,1.779832 -2.669748,4.44958 -2.669748,4.44958 -2.669748,2.669748 0.889916,4.449572 0.889916,4.449572 11.568907,1.779828 29.367225,1.779828 40.936132,0 0,0 2.669748,-1.779824 0,-4.449572 0,0 0.889916,-2.669748 -1.779832,-4.44958 -0.889916,-4.449579 -0.889916,-3.559664 0.889916,-6.229411 1.779832,-3.559664 4.44958,-3.559664 4.44958,-7.119328 -15.128571,-2.669748 -32.926889,-2.669748 -48.05546,0 z" id="path5583" style="fill:#ffffff;fill-opacity:1;fill-rule:evenodd;stroke:#000000;stroke-width:2.66974783;stroke-linecap:butt;stroke-linejoin:round;stroke-miterlimit:4;stroke-opacity:1;stroke-dasharray:none"/>
    <path d="m 14.853405,84.321399 c 6.229411,-1.779832 32.926889,-1.779832 39.1563,0" id="path5585" style="fill:none;stroke:#000000;stroke-width:1.77983189px;stroke-linecap:round;stroke-linejoin:round;stroke-opacity:1"/>
    <path d="m 15.743321,90.55081 c 10.678991,-1.779832 26.697477,-1.779832 37.376468,0" id="path5587" style="fill:none;stroke:#000000;stroke-width:1.77983189px;stroke-linecap:round;stroke-linejoin:round;stroke-opacity:1"/>
  </g>
  
  <g id="text3415" style="font-size:26.36704063px;font-style:normal;font-weight:normal;line-height:125%;letter-spacing:0px;word-spacing:0px;fill:#008000;fill-opacity:1;stroke:none;font-family:Bitstream Vera Sans" transform="matrix(1.667958,0,0,1.6776466,-327.546,-28.248335)">
    <path d="m 292.45003,34.144086 2.60066,0 0,17.033006 4.5635,0 0,2.18867 -7.16416,0 0,-19.221676" id="path3456" style="fill:#008000"/>
  </g>
  <path d="m 133.56881,28.775714 9.83309,0 0,3.70166 -5.58915,0 0,9.624314 4.93787,0 0,3.701659 -4.93787,0 0,11.779986 5.96733,0 0,3.701659 -10.21127,0 0,-32.509278" id="path3452" style="font-size:26.36704063px;font-style:normal;font-weight:normal;line-height:125%;letter-spacing:0px;word-spacing:0px;fill:#008000;fill-opacity:1;stroke:none;font-family:Bitstream Vera Sans"/>
  <path d="m 126.78257,45.874329 c 0.88665,0.320661 2.22112,1.235013 3.10241,2.169718 0.99317,0.983876 1.8165,2.640719 2.16051,4.410629 0,1.114667 0.0473,8.821507 0.0473,8.821507 l -4.19473,-0.01808 c 0,0 0,-7 -0.15376,-8.453445 -0.15376,-1.453445 -1.99166,-3.636406 -2.94655,-4.350585 -0.94127,-0.714152 -0.23037,-1.071248 -1.8673,-1.071248 l -0.21359,0 0,13.795072 -4.13332,0 0,-32.640325 5.04259,0 c 3.49219,3.3e-5 4.09766,0.779786 5.81649,2.339259 1.71878,1.559536 2.57819,3.913369 2.5782,7.061505 -2e-5,2.055071 -0.45017,3.760325 -1.35046,5.115763 -0.88672,1.355477 -2.18266,2.295553 -3.88779,2.82023 m -4.06571,-13.707624 0,11.586986 0.90927,0 c 1.99164,1.9e-5 1.49219,-0.488238 2.50164,-1.464769 1.02309,-0.991069 1.53465,-2.441263 1.53467,-4.350586 -2e-5,-1.909278 -0.51158,-3.344897 -1.53467,-4.306862 -1.00945,-0.976484 -0.51,-1.46474 -2.50164,-1.464769 l -0.90927,0" id="path3450" style="font-size:26.36704063px;font-style:normal;font-weight:normal;line-height:125%;letter-spacing:0px;word-spacing:0px;fill:#008000;fill-opacity:1;stroke:none;font-family:Bitstream Vera Sans"/>
  <path d="m 159.12678,61.284992 -5.01741,-32.392626 -4.15474,0 -5.01355,32.392626 4.15476,0 2.94004,-18.971116 2.93617,18.971116 4.15474,0 z" id="V-6-4" style="fill:#008000"/>
  <path d="m 147.48333,49.139594 8.93787,0 0,3.701655 -8.93787,0" id="path3452-7" style="font-size:26.36704063px;font-style:normal;font-weight:normal;line-height:125%;letter-spacing:0px;word-spacing:0px;fill:#008000;fill-opacity:1;stroke:none;font-family:Bitstream Vera Sans"/>
</svg>